<svg width="11" height="6" viewBox="0 0 11 6" fill="none" xmlns="http://www.w3.org/2000/svg">
<path d="M10.6779 0.322824C10.5758 0.220481 10.4545 0.139294 10.321 0.0839031C10.1875 0.0285119 10.0444 1.75622e-06 9.89989 1.73095e-06C9.75538 1.70568e-06 9.61229 0.0285118 9.47878 0.0839029C9.34528 0.139294 9.22399 0.220481 9.12184 0.322823L5.75884 3.68922C5.69008 3.75805 5.59684 3.79671 5.49961 3.79671C5.40239 3.79671 5.30914 3.75805 5.24039 3.68922L1.87812 0.322822C1.67187 0.116216 1.39209 0.000107599 1.10033 3.87038e-05C0.808573 -3.01916e-05 0.528738 0.115946 0.322386 0.322455C0.116034 0.528963 6.86532e-05 0.809087 -1.61942e-07 1.1012C-6.89771e-05 1.39332 0.115765 1.6735 0.32202 1.8801L3.68502 5.24724C3.92335 5.48589 4.20631 5.6752 4.51772 5.80436C4.82913 5.93352 5.16291 6 5.49998 6C5.83705 6 6.17083 5.93352 6.48224 5.80436C6.79365 5.6752 7.07661 5.48589 7.31494 5.24724L10.6779 1.88011C10.8842 1.67358 11 1.3935 11 1.10146C11 0.809431 10.8842 0.529354 10.6779 0.322824Z" fill="#464754"/>
</svg>
