<svg width="20" height="20" viewBox="0 0 20 20" fill="none" xmlns="http://www.w3.org/2000/svg">
<path opacity="0.4" d="M16.0332 4.64948H15.6998L12.8832 1.83281C12.6582 1.60781 12.2915 1.60781 12.0582 1.83281C11.8332 2.05781 11.8332 2.42448 12.0582 2.65781L14.0498 4.64948H5.94984L7.9415 2.65781C8.1665 2.43281 8.1665 2.06615 7.9415 1.83281C7.7165 1.60781 7.34984 1.60781 7.1165 1.83281L4.30817 4.64948H3.97484C3.22484 4.64948 1.6665 4.64948 1.6665 6.78281C1.6665 7.59115 1.83317 8.12448 2.18317 8.47448C2.38317 8.68281 2.62484 8.79115 2.88317 8.84948C3.12484 8.90781 3.38317 8.91615 3.63317 8.91615H16.3665C16.6248 8.91615 16.8665 8.89948 17.0998 8.84948C17.7998 8.68281 18.3332 8.18281 18.3332 6.78281C18.3332 4.64948 16.7748 4.64948 16.0332 4.64948Z" fill="#00783F"/>
<path d="M16.3833 8.9168H3.6333C3.39163 8.9168 3.12497 8.90846 2.8833 8.8418L3.9333 15.2501C4.17497 16.6835 4.79997 18.3335 7.57497 18.3335H12.25C15.0583 18.3335 15.5583 16.9251 15.8583 15.3501L17.1166 8.8418C16.8833 8.90013 16.6333 8.9168 16.3833 8.9168ZM12.4 12.5418L9.69163 15.0418C9.57497 15.1501 9.41663 15.2085 9.26663 15.2085C9.1083 15.2085 8.94997 15.1501 8.82497 15.0251L7.57497 13.7751C7.3333 13.5335 7.3333 13.1335 7.57497 12.8918C7.81663 12.6501 8.21663 12.6501 8.4583 12.8918L9.2833 13.7168L11.55 11.6251C11.8 11.3918 12.2 11.4085 12.4333 11.6585C12.675 11.9168 12.6583 12.3085 12.4 12.5418Z" fill="#00783F"/>
</svg>
