<svg width="20" height="20" viewBox="0 0 20 20" fill="none" xmlns="http://www.w3.org/2000/svg">
<path opacity="0.4" d="M14.6166 7.34154C15.9789 7.34154 17.0832 6.23717 17.0832 4.87487C17.0832 3.51257 15.9789 2.4082 14.6166 2.4082C13.2543 2.4082 12.1499 3.51257 12.1499 4.87487C12.1499 6.23717 13.2543 7.34154 14.6166 7.34154Z"/>
<path d="M5.38317 7.34154C6.74547 7.34154 7.84984 6.23717 7.84984 4.87487C7.84984 3.51257 6.74547 2.4082 5.38317 2.4082C4.02087 2.4082 2.9165 3.51257 2.9165 4.87487C2.9165 6.23717 4.02087 7.34154 5.38317 7.34154Z" />
<path d="M14.6166 17.5915C15.9789 17.5915 17.0832 16.4872 17.0832 15.1249C17.0832 13.7626 15.9789 12.6582 14.6166 12.6582C13.2543 12.6582 12.1499 13.7626 12.1499 15.1249C12.1499 16.4872 13.2543 17.5915 14.6166 17.5915Z" />
<path opacity="0.4" d="M5.38317 17.5915C6.74547 17.5915 7.84984 16.4872 7.84984 15.1249C7.84984 13.7626 6.74547 12.6582 5.38317 12.6582C4.02087 12.6582 2.9165 13.7626 2.9165 15.1249C2.9165 16.4872 4.02087 17.5915 5.38317 17.5915Z" />
</svg>
