<svg width="20" height="20" viewBox="0 0 20 20" fill="none" xmlns="http://www.w3.org/2000/svg">
<path d="M16.4583 12.841L15.75 12.1327C16.1166 11.5743 16.3333 10.916 16.3333 10.1993C16.3333 8.24934 14.7499 6.66602 12.7999 6.66602C10.8499 6.66602 9.2666 8.24934 9.2666 10.1993C9.2666 12.1493 10.8499 13.7327 12.7999 13.7327C13.5166 13.7327 14.1833 13.516 14.7333 13.1493L15.4416 13.8577C15.5833 13.9994 15.7666 14.066 15.95 14.066C16.1333 14.066 16.3166 13.9994 16.4583 13.8577C16.7333 13.5744 16.7333 13.116 16.4583 12.841Z" fill="#C89211"/>
<path opacity="0.4" d="M4.50822 1.66602H15.4833C16.3999 1.66602 17.1499 2.42434 17.1499 3.34934V5.19934C17.1499 5.87434 16.7333 6.71601 16.3166 7.13268L12.7416 10.3327C12.2416 10.7577 11.9082 11.5993 11.9082 12.266V15.8827C11.9082 16.391 11.5749 17.0577 11.1583 17.316L9.99157 18.0744C8.90823 18.7494 7.4166 17.991 7.4166 16.641V12.1827C7.4166 11.591 7.08322 10.8327 6.74989 10.416L3.59157 7.04934C3.17491 6.62434 2.84155 5.87435 2.84155 5.36602V3.43268C2.84989 2.42434 3.59989 1.66602 4.50822 1.66602Z" fill="#C89211"/>
</svg>
