<svg width="20" height="20" viewBox="0 0 20 20" fill="none" xmlns="http://www.w3.org/2000/svg">
<path opacity="0.4" d="M12.4961 4.74014V2.06645C12.4961 1.23607 12.1196 0.900391 11.1843 0.900391H8.80786C7.87256 0.900391 7.49609 1.23607 7.49609 2.06645V4.73425C7.49609 5.57052 7.87256 5.90031 8.80786 5.90031H11.1843C12.1196 5.9062 12.4961 5.57052 12.4961 4.74014Z" fill="#C89211"/>
<path d="M12.4961 11.3398V8.66606C12.4961 7.83568 12.1196 7.5 11.1843 7.5H8.80786C7.87256 7.5 7.49609 7.83568 7.49609 8.66606V11.3339C7.49609 12.1701 7.87256 12.4999 8.80786 12.4999H11.1843C12.1196 12.5058 12.4961 12.1701 12.4961 11.3398Z" fill="#C89211"/>
<path opacity="0.4" d="M12.4961 17.9394V15.2657C12.4961 14.4353 12.1196 14.0996 11.1843 14.0996H8.80786C7.87256 14.0996 7.49609 14.4353 7.49609 15.2657V17.9335C7.49609 18.7697 7.87256 19.0995 8.80786 19.0995H11.1843C12.1196 19.1054 12.4961 18.7697 12.4961 17.9394Z" fill="#C89211"/>
<path d="M19.1035 4.74014V2.06645C19.1035 1.23607 18.727 0.900391 17.7918 0.900391H15.4153C14.48 0.900391 14.1035 1.23607 14.1035 2.06645V4.73425C14.1035 5.57052 14.48 5.90031 15.4153 5.90031H17.7918C18.727 5.9062 19.1035 5.57052 19.1035 4.74014Z" fill="#C89211"/>
<path opacity="0.4" d="M19.1035 11.3398V8.66606C19.1035 7.83568 18.727 7.5 17.7918 7.5H15.4153C14.48 7.5 14.1035 7.83568 14.1035 8.66606V11.3339C14.1035 12.1701 14.48 12.4999 15.4153 12.4999H17.7918C18.727 12.5058 19.1035 12.1701 19.1035 11.3398Z" fill="#C89211"/>
<path d="M19.1035 17.9394V15.2657C19.1035 14.4353 18.727 14.0996 17.7918 14.0996H15.4153C14.48 14.0996 14.1035 14.4353 14.1035 15.2657V17.9335C14.1035 18.7697 14.48 19.0995 15.4153 19.0995H17.7918C18.727 19.1054 19.1035 18.7697 19.1035 17.9394Z" fill="#C89211"/>
<path d="M5.89648 4.74014V2.06645C5.89648 1.23607 5.52001 0.900391 4.58472 0.900391H2.20825C1.27295 0.900391 0.896484 1.23607 0.896484 2.06645V4.73426C0.896484 5.57052 1.27295 5.90031 2.20825 5.90031H4.58472C5.52001 5.9062 5.89648 5.57052 5.89648 4.74014Z" fill="#C89211"/>
<path opacity="0.4" d="M5.89648 11.3398V8.66606C5.89648 7.83568 5.52001 7.5 4.58472 7.5H2.20825C1.27295 7.5 0.896484 7.83568 0.896484 8.66606V11.3339C0.896484 12.1701 1.27295 12.4999 2.20825 12.4999H4.58472C5.52001 12.5058 5.89648 12.1701 5.89648 11.3398Z" fill="#C89211"/>
<path d="M5.89648 17.9394V15.2657C5.89648 14.4353 5.52001 14.0996 4.58472 14.0996H2.20825C1.27295 14.0996 0.896484 14.4353 0.896484 15.2657V17.9335C0.896484 18.7697 1.27295 19.0995 2.20825 19.0995H4.58472C5.52001 19.1054 5.89648 18.7697 5.89648 17.9394Z" fill="#C89211"/>
</svg>
