<svg width="150" height="41" viewBox="0 0 150 41" fill="none" xmlns="http://www.w3.org/2000/svg">
<path d="M15.4336 1.23828C15.4336 1.23828 -0.229808 4.53142 1.08745 22.0989C2.4047 39.6664 24.2174 44.7898 34.3902 34.2497C34.3902 34.2497 16.7509 43.3987 7.60191 29.7111C-1.54706 16.0235 8.041 3.79893 15.4336 1.23828Z" fill="#6BA43A"/>
<path d="M33.1573 3.82031C41.7728 9.86902 43.4204 22.3788 36.9551 30.625C30.6315 38.9779 18.1073 40.5722 10.0684 33.7786C18.2017 39.7289 30.1555 38.1428 36.2288 30.0649C42.4971 22.0731 40.9931 10.2178 33.1573 3.82031Z" fill="#C89211"/>
<path d="M2.37589 24.7494C-0.359162 16.5094 3.82446 6.80643 11.3135 2.57767C13.79 1.14141 16.5825 0.271447 19.3771 0.150391C16.7262 1.02651 14.2681 2.22066 12.0973 3.79234C5.41665 8.51558 1.88346 16.6079 2.37589 24.7494Z" fill="#4A8B2C"/>
<path d="M37.3919 16.779C37.5458 23.4165 33.2945 29.8284 27.1411 32.3337C17.4956 36.4804 6.08144 30.3947 4.16096 20.068C2.02914 9.82748 10.2343 -0.131961 20.6985 0.0855294C17.4279 0.126565 14.1758 1.12169 11.4736 2.97241C2.87858 8.72361 1.65571 21.1842 9.02372 28.4537C19.5453 38.8276 37.1416 31.5129 37.3919 16.779Z" fill="#6BA43A"/>
<path d="M38.7443 13.7712C40.7222 19.9758 39.0233 27.1818 34.5524 31.9317C21.7923 45.3525 -0.408164 34.9252 1.73597 16.5473C2.63055 9.08899 8.34276 2.54169 15.6451 0.78125C8.57051 2.89666 3.20916 9.29211 2.44794 16.6335C1.29893 26.9991 9.00139 36.3123 19.4102 37.0796C32.1436 37.9804 41.8753 26.1025 38.7443 13.7712Z" fill="#4A8B2C"/>
<path d="M40.9806 18.518C41.3684 25.0345 37.8947 31.4648 32.3651 34.8954C27.57 37.9424 21.39 38.6072 16.0389 36.7133C4.56936 32.6754 -0.289299 19.0309 6.16977 8.70012C9.60038 3.17052 16.0307 -0.305231 22.5493 0.0866626C16.2749 0.396484 10.4108 3.90506 7.30646 9.38337C1.30495 19.8681 7.26953 33.2868 19.1207 35.7449C30.1574 38.047 40.4389 29.6982 40.9806 18.518Z" fill="#00783F"/>
<path d="M37.2176 10.1493C40.3876 16.5263 39.2632 24.555 34.4702 29.8261C23.7106 41.6875 4.08306 34.7196 3.20899 18.7299C2.87455 12.5479 5.99739 6.36578 11.1925 3.00288C11.925 2.52071 12.6945 2.10419 13.4824 1.72461C11.9168 2.49814 10.4539 3.48095 9.17358 4.67099C3.25618 10.0939 1.74196 19.1198 5.59729 26.1615C11.3177 36.8494 26.1461 38.6406 34.2609 29.6373C39.0334 24.4975 40.2419 16.4791 37.2176 10.1493Z" fill="#6BA43A"/>
<path d="M33.1573 3.82031C39.2245 8.34863 42.0108 16.4635 40.0062 23.77C35.519 40.1638 13.6016 42.9994 5.08871 28.2901C1.79968 22.6025 1.78326 15.2488 5.08051 9.5674C5.54216 8.75899 6.06947 7.99367 6.63167 7.25503C5.51959 8.74053 4.60654 10.3738 3.96638 12.1157C0.968698 20.1116 3.86584 29.3632 10.9097 34.1931C21.4682 41.5693 36.3807 36.1321 39.7354 23.6981C41.779 16.521 39.0747 8.3712 33.1573 3.82031Z" fill="#4A8B2C"/>
<path d="M40.5887 19.9731C40.9375 32.5014 29.0063 42.3439 16.7509 39.8223C-0.902755 36.2439 -5.47006 13.2699 9.54911 3.28585C12.8525 1.13762 16.7899 -0.00523274 20.6986 0.0850464C18.7494 0.136341 16.8084 0.44206 14.9515 1.03298C4.2924 4.4205 -1.49162 16.0275 2.30421 26.5553C4.55093 32.9118 10.2652 37.8546 16.8863 39.1411C29.0412 41.595 40.3692 32.3414 40.5887 19.9731Z" fill="#C89211"/>
<path d="M36.5567 9.63877C39.9791 15.9173 39.1645 24.0301 34.5603 29.5043C27.4939 38.2183 13.7058 38.1855 6.7194 29.3873C0.912809 22.3517 1.48731 11.6023 8.05512 5.26228C9.31288 4.02504 10.7594 2.99094 12.3147 2.16406C10.7676 3.00325 9.33134 4.04967 8.0859 5.29511C1.62273 11.6557 1.03592 22.3045 6.83841 29.2909C13.7837 37.9639 27.4385 38.048 34.4659 29.4284C39.0476 24.0219 39.9032 15.8844 36.5567 9.63877Z" fill="#C89211"/>
<path d="M33.5697 28.782C34.1125 28.782 34.5525 28.342 34.5525 27.7992C34.5525 27.2564 34.1125 26.8164 33.5697 26.8164C33.0269 26.8164 32.5869 27.2564 32.5869 27.7992C32.5869 28.342 33.0269 28.782 33.5697 28.782Z" fill="#6BA43A"/>
<path d="M0.982812 10.4285C1.5256 10.4285 1.96562 9.98849 1.96562 9.4457C1.96562 8.90291 1.5256 8.46289 0.982812 8.46289C0.44002 8.46289 0 8.90291 0 9.4457C0 9.98849 0.44002 10.4285 0.982812 10.4285Z" fill="#C89211"/>
<path d="M14.0344 40.0132C14.6259 40.0132 15.1055 39.5337 15.1055 38.9421C15.1055 38.3506 14.6259 37.8711 14.0344 37.8711C13.4429 37.8711 12.9634 38.3506 12.9634 38.9421C12.9634 39.5337 13.4429 40.0132 14.0344 40.0132Z" fill="#00783F"/>
<path d="M30.9865 10.2938C30.5085 10.2938 30.1227 10.6795 30.1227 11.1576C30.1227 11.1863 30.1248 11.2171 30.1268 11.2437C29.9627 11.5392 29.8293 11.849 29.7288 12.1691C30.1781 12.0932 30.6582 12.0337 31.1712 11.9988C31.5569 11.9167 31.8462 11.57 31.8462 11.1576C31.8462 10.6795 31.4605 10.2938 30.9865 10.2938ZM30.2192 9.42174C30.2192 8.94368 29.8334 8.55794 29.3554 8.55794C28.8793 8.55794 28.4936 8.94368 28.4936 9.42174C28.4936 9.53665 28.5162 9.64744 28.5572 9.74798C28.0586 10.9996 27.359 12.1671 26.4746 13.1991C27.0163 12.9385 27.6524 12.6821 28.3992 12.4707C28.8506 11.7711 29.2322 11.0304 29.5482 10.263C29.9319 10.1748 30.2192 9.8321 30.2192 9.42174ZM27.5067 7.28582C27.5067 6.8098 27.1209 6.42407 26.6429 6.42407C26.1669 6.42407 25.7811 6.8098 25.7811 7.28582C25.7811 7.38226 25.7975 7.47459 25.8263 7.56076C25.736 7.68797 25.6293 7.80287 25.5062 7.90546C25.2846 8.08807 25.0302 8.21529 24.7573 8.27684C24.8476 7.94855 24.9214 7.61411 24.9912 7.27761C25.2928 7.14425 25.5041 6.84058 25.5041 6.48972C25.5041 6.01371 25.1184 5.62797 24.6403 5.62797C24.1643 5.62797 23.7786 6.01371 23.7786 6.48972C23.7786 6.66823 23.8319 6.83032 23.9242 6.96779C23.5877 8.6913 22.9455 10.3307 22.0161 11.8306V6.67233C22.1966 6.51434 22.3115 6.28249 22.3115 6.02396C22.3115 5.54589 21.9258 5.16016 21.4477 5.16016C20.9717 5.16016 20.586 5.54589 20.586 6.02396C20.586 6.2948 20.7111 6.53691 20.906 6.6949V14.0055C19.8986 13.314 18.8317 12.7416 17.7175 12.2943C17.7134 11.8531 17.6498 11.4243 17.5329 11.0119C18.9527 10.146 19.796 8.57025 19.7468 6.9206C19.8535 6.77697 19.9171 6.60052 19.9171 6.40765C19.9171 5.92958 19.5313 5.54384 19.0553 5.54384C18.5772 5.54384 18.1915 5.92958 18.1915 6.40765C18.1915 6.73594 18.3741 7.01909 18.6409 7.16477C18.608 8.283 18.0397 9.33147 17.1102 9.96752C16.7717 9.34378 16.3018 8.80005 15.7376 8.36917C15.717 7.90957 15.3416 7.54435 14.8779 7.54435C14.3998 7.54435 14.014 7.93009 14.014 8.40816C14.014 8.88417 14.3998 9.26991 14.8779 9.26991C14.9435 9.26991 15.0051 9.26376 15.0646 9.24939C15.8914 9.87724 16.4536 10.8252 16.5808 11.886C15.3662 11.5002 14.1043 11.2561 12.8076 11.1555C12.6558 10.9052 12.3829 10.7349 12.0689 10.7349C11.5909 10.7349 11.2051 11.1206 11.2051 11.5967C11.2051 12.0747 11.5909 12.4605 12.0689 12.4605C12.2803 12.4605 12.4752 12.3825 12.625 12.2553C12.9266 12.2758 13.2262 12.3045 13.5216 12.3415C13.0271 12.9036 12.3726 13.2853 11.6606 13.4474C11.5026 13.2607 11.2667 13.1417 11.002 13.1417C10.5239 13.1417 10.1382 13.5274 10.1382 14.0034C10.1382 14.4794 10.5239 14.8672 11.002 14.8672C11.2564 14.8672 11.4842 14.7544 11.6422 14.58C12.8856 14.3707 14.0284 13.6587 14.7506 12.5487C16.3305 12.8811 17.8407 13.4597 19.2441 14.2681C18.6244 14.424 17.9822 14.5061 17.3298 14.5061V15.6141C18.409 15.6141 19.4595 15.4233 20.4608 15.0478C20.6106 15.1545 20.7583 15.2612 20.904 15.372V18.2178C21.4395 17.5674 21.9648 16.9047 22.5372 16.2624C22.3649 16.3486 22.1905 16.4307 22.012 16.5066V13.7757C23.042 12.442 23.8401 10.9791 24.3941 9.42995C25.0589 9.42174 25.6949 9.18989 26.214 8.75901C26.4315 8.5764 26.6203 8.36712 26.7721 8.13937C27.1907 8.07166 27.5067 7.7167 27.5067 7.28582ZM25.3113 11.886C25.3113 11.4469 24.9583 11.094 24.5193 11.094C24.0802 11.094 23.7273 11.4469 23.7273 11.886C23.7273 12.0788 23.795 12.2553 23.9099 12.3928C23.9304 13.1478 24.0453 13.8906 24.2505 14.6087C24.55 14.3666 24.8701 14.1306 25.2148 13.909C25.1081 13.4474 25.0445 12.9775 25.022 12.4994C25.1984 12.3538 25.3113 12.1322 25.3113 11.886ZM18.1792 16.7549C17.7401 16.7549 17.3852 17.1078 17.3852 17.5469C17.3852 17.986 17.7401 18.3389 18.1792 18.3389C18.3023 18.3389 18.4193 18.3101 18.5239 18.2588C19.0676 18.5194 19.5785 18.8395 20.0463 19.2191C20.2946 18.9421 20.5347 18.6631 20.7706 18.3779C20.1961 17.91 19.5662 17.5202 18.8932 17.2104C18.7681 16.9416 18.4952 16.7549 18.1792 16.7549ZM16.0905 18.9893C16.3593 18.7944 16.5788 18.5358 16.7347 18.2301C16.9851 17.7274 17.0281 17.1591 16.8496 16.6277L15.7991 16.9744C15.8812 17.2268 15.8607 17.4956 15.7417 17.7336C15.6678 17.8813 15.5591 18.0065 15.4298 18.0988C14.7712 16.9293 14.6522 15.4725 15.2451 14.1552L14.2336 13.7018C13.3267 15.729 13.7555 18.0188 15.1384 19.5864C13.8191 19.1924 12.6045 18.4558 11.636 17.4217C11.6381 17.3991 11.6401 17.3766 11.6401 17.354C11.6401 17.352 11.6401 17.352 11.6401 17.352C11.6401 16.9416 11.3529 16.5989 10.9692 16.5128C10.9076 16.5005 10.844 16.4922 10.7784 16.4922C10.7537 16.4922 10.7291 16.4943 10.7045 16.4963C10.2634 16.5333 9.91455 16.9026 9.91455 17.354C9.91455 17.8321 10.3023 18.2178 10.7784 18.2178C10.7825 18.2178 10.7907 18.2178 10.7948 18.2158C10.8153 18.2158 10.8379 18.2137 10.8563 18.2117C11.9192 19.3442 13.2651 20.1834 14.7937 20.643C15.6514 20.9016 16.5275 21.0308 17.3975 21.0308C17.6375 21.0308 17.8796 21.0206 18.1197 21.0001C18.7229 20.5569 19.2482 20.0706 19.7345 19.5576C18.965 19.7977 18.1751 19.9167 17.3934 19.9167C16.8886 19.6828 16.4536 19.3648 16.0905 18.9893Z" fill="#C89211"/>
<path d="M30.6049 17.6135C31.2409 17.6135 31.8729 17.5068 32.4741 17.3017C32.6074 17.3858 32.7654 17.4371 32.9357 17.4371C33.4117 17.4371 33.7975 17.0513 33.7975 16.5753C33.7975 16.0972 33.4117 15.7115 32.9357 15.7115C32.5767 15.7115 32.2689 15.9311 32.1376 16.245C31.6841 16.403 31.2081 16.4932 30.7239 16.5056C31.1178 16.0111 31.4789 15.4879 31.8031 14.938C31.8626 14.8374 31.9201 14.7328 31.9775 14.6282C31.996 14.6261 32.0145 14.6241 32.0329 14.622C32.4392 14.5502 32.747 14.1973 32.747 13.7726C32.747 13.2965 32.3592 12.9108 31.8832 12.9108C31.7847 12.9108 31.6862 12.9293 31.5959 12.9621C31.5528 12.9765 31.5077 12.9949 31.4666 13.0195C31.202 13.1652 31.0193 13.4484 31.0193 13.7746C31.0193 13.8218 31.0235 13.869 31.0317 13.9141C31.0358 13.9408 31.044 13.9695 31.0501 13.9962C30.9393 14.2014 30.8244 14.4045 30.7013 14.6035C30.5023 13.7418 30.5967 12.8287 30.9742 12.0244H30.9865C31.0501 12.0244 31.1117 12.0183 31.1712 12.0039C30.6603 12.0388 30.1802 12.0983 29.7288 12.1742C29.3615 13.3335 29.4189 14.6035 29.9155 15.7341C28.9593 16.9631 27.7713 18.0177 26.3946 18.8282C25.8529 18.8877 25.3215 18.9821 24.7942 19.1113C24.8845 18.978 24.9953 18.8569 25.1225 18.7523C25.4918 18.4445 25.9596 18.2988 26.4377 18.344L26.5382 17.2422C25.7667 17.1703 25.0096 17.4042 24.4126 17.9028C23.9037 18.3255 23.5631 18.8939 23.4297 19.5299C22.9455 19.7084 22.4715 19.9156 22.0119 20.1516V17.7079C23.4133 17.156 24.708 16.3763 25.855 15.3873C26.1976 15.0939 26.5197 14.7841 26.8275 14.462C27.3117 14.5769 27.8021 14.6364 28.3007 14.6364C28.4443 14.6364 28.59 14.6323 28.7377 14.622L28.6618 13.5161C28.3294 13.5387 27.997 13.5304 27.6708 13.4894C27.9293 13.1611 28.1714 12.8226 28.3951 12.4717C27.6482 12.681 27.0122 12.9395 26.4705 13.2001C26.1196 13.6125 25.7401 14.0044 25.3297 14.3717C25.2846 14.2178 25.2435 14.066 25.2086 13.91C24.866 14.1316 24.5439 14.3655 24.2443 14.6097C24.2956 14.782 24.3489 14.9544 24.4084 15.1226C23.8175 15.5597 23.1917 15.9413 22.5331 16.2634C21.9607 16.9057 21.4354 17.5684 20.8999 18.2188V18.4896C20.8568 18.4527 20.8116 18.4158 20.7665 18.3809C20.5305 18.664 20.2905 18.9451 20.0422 19.2221C20.1099 19.2734 20.1735 19.3288 20.2371 19.3842C20.0668 19.4499 19.8965 19.5094 19.7262 19.5627C19.24 20.0736 18.7147 20.562 18.1115 21.0052C19.0635 20.9292 20.0032 20.6953 20.8999 20.3116V23.1739H16.5172V26.7584C15.9017 26.9759 15.4585 27.5607 15.4585 28.248C15.4585 29.12 16.1664 29.8279 17.0404 29.8279C17.9124 29.8279 18.6203 29.12 18.6203 28.248C18.6203 27.5832 18.2059 27.0128 17.6252 26.781V24.2798H20.9081V27.8705C20.2987 28.09 19.8617 28.6727 19.8617 29.358C19.8617 30.23 20.5695 30.9379 21.4415 30.9379C22.3156 30.9379 23.0235 30.23 23.0235 29.358C23.0235 28.6891 22.6049 28.1187 22.0181 27.8869V24.2798H25.301V26.781C24.7183 27.0149 24.3038 27.5832 24.3038 28.248C24.3038 29.12 25.0117 29.8279 25.8857 29.8279C26.7578 29.8279 27.4656 29.12 27.4656 28.248C27.4656 27.5607 27.0224 26.9738 26.409 26.7584V23.1739H22.016V21.4155C24.9912 19.692 28.5613 19.4232 31.719 20.5476C31.8237 20.9067 32.154 21.1672 32.5438 21.1672C33.0219 21.1672 33.4076 20.7815 33.4076 20.3034C33.4076 19.8274 33.0219 19.4417 32.5438 19.4417C32.4125 19.4417 32.2874 19.4704 32.1766 19.5238C30.9886 19.0867 29.737 18.8282 28.4505 18.7666C28.9265 18.3932 29.3738 17.989 29.7965 17.5602C30.0632 17.593 30.334 17.6135 30.6049 17.6135ZM18.0458 28.2439C18.0458 28.7999 17.5944 29.2513 17.0384 29.2513C16.4823 29.2513 16.0309 28.7979 16.0309 28.2439C16.0309 27.6879 16.4823 27.2365 17.0384 27.2365C17.5944 27.2365 18.0458 27.6899 18.0458 28.2439ZM22.4469 29.356C22.4469 29.912 21.9955 30.3634 21.4395 30.3634C20.8835 30.3634 20.4321 29.91 20.4321 29.356C20.4321 28.8471 20.8096 28.4286 21.2979 28.3588H21.579C22.0694 28.4265 22.4469 28.8471 22.4469 29.356ZM26.8891 28.2439C26.8891 28.7999 26.4377 29.2513 25.8816 29.2513C25.3256 29.2513 24.8742 28.7979 24.8742 28.2439C24.8742 27.6879 25.3256 27.2365 25.8816 27.2365C26.4377 27.2365 26.8891 27.6899 26.8891 28.2439Z" fill="#00783F"/>
<path d="M57.3125 9.8218L54.4356 16.7313C53.9486 17.9019 52.8038 18.6656 51.5356 18.6656C51.2087 18.6656 50.9917 18.3265 51.1286 18.0294L57.4074 4.46265C57.6516 3.93637 58.399 3.93365 58.6472 4.45858L66.2756 20.6473C66.4031 20.9172 66.2064 21.2278 65.908 21.2278H65.7914C64.5408 21.2278 63.4109 20.4872 62.9117 19.341L58.7625 9.81095C58.4844 9.17344 57.5797 9.18022 57.3125 9.8218Z" fill="#BF9000"/>
<path d="M71.3205 11.4147C71.1102 11.2465 70.9135 11.1203 70.7318 11.0362C70.55 10.9521 70.3181 10.9101 70.0387 10.9101C69.4785 10.9101 69.0715 11.1244 68.8192 11.5517C68.567 11.9789 68.4408 12.5364 68.4408 13.2228V18.666H66.1919V8.99757H68.4408V10.1532C68.7352 9.73274 69.0742 9.39635 69.4608 9.14406C69.846 8.89177 70.2421 8.76562 70.6477 8.76562C70.9976 8.76562 71.3272 8.82531 71.6351 8.94467C71.943 9.06403 72.2089 9.24986 72.4341 9.50215L71.3205 11.4147Z" fill="#BF9000"/>
<path d="M83.2064 13.8308C83.2064 14.8955 82.9894 15.803 82.5553 16.5531C82.1213 17.3032 81.5462 17.8769 80.8313 18.2771C80.1165 18.6758 79.3393 18.8766 78.4983 18.8766C77.7835 18.8766 77.146 18.7192 76.5858 18.4032C76.0256 18.0885 75.5631 17.6355 75.1982 17.0482V18.6663H72.9072V2.27148H75.1982V10.6147C75.5617 10.026 76.0242 9.57436 76.5858 9.25968C77.146 8.94499 77.7835 8.78629 78.4983 8.78629C79.3393 8.78629 80.1165 8.98568 80.8313 9.38582C81.5462 9.78461 82.1199 10.3597 82.5553 11.1098C82.9894 11.8585 83.2064 12.766 83.2064 13.8308ZM80.8517 13.8308C80.8517 12.8636 80.5641 12.1108 79.9904 11.571C79.4153 11.0311 78.7357 10.7626 77.9517 10.7626C77.5027 10.7626 77.0687 10.8819 76.6482 11.1193C76.2277 11.358 75.8805 11.7039 75.6078 12.1597C75.3352 12.6154 75.1982 13.1715 75.1982 13.8308C75.1982 14.49 75.3352 15.0461 75.6078 15.5018C75.8805 15.9576 76.2277 16.3048 76.6482 16.5422C77.0687 16.7809 77.5027 16.8989 77.9517 16.8989C78.7357 16.8989 79.4153 16.629 79.9904 16.0892C80.5655 15.5507 80.8517 14.7965 80.8517 13.8308Z" fill="#BF9000"/>
<path d="M84.103 13.8316C84.103 12.8373 84.3309 11.9611 84.7867 11.2042C85.2424 10.4473 85.8623 9.85596 86.6463 9.42869C87.4303 9.00142 88.3201 8.78711 89.3157 8.78711C90.2964 8.78711 91.1821 9.00142 91.9742 9.42869C92.765 9.85596 93.389 10.4487 93.8447 11.2042C94.3005 11.9611 94.5284 12.8373 94.5284 13.8316C94.5284 14.8272 94.3005 15.7021 93.8447 16.4589C93.389 17.2158 92.765 17.8072 91.9742 18.2345C91.1821 18.6617 90.2964 18.876 89.3157 18.876C88.3201 18.876 87.4316 18.6631 86.6463 18.2345C85.8609 17.8072 85.2411 17.2144 84.7867 16.4589C84.3309 15.7021 84.103 14.8258 84.103 13.8316ZM86.436 13.8316C86.436 14.7282 86.7127 15.4606 87.2662 16.0276C87.8196 16.5946 88.5032 16.8794 89.3157 16.8794C90.1282 16.8794 90.8118 16.5959 91.3652 16.0276C91.9186 15.4606 92.1953 14.7282 92.1953 13.8316C92.1953 12.9214 91.9186 12.1849 91.3652 11.6247C90.8118 11.0645 90.1282 10.7837 89.3157 10.7837C88.5032 10.7837 87.8196 11.0645 87.2662 11.6247C86.7127 12.1849 86.436 12.9201 86.436 13.8316Z" fill="#BF9000"/>
<path d="M100.757 11.4147C100.547 11.2465 100.35 11.1203 100.168 11.0362C99.9865 10.9521 99.7546 10.9101 99.4752 10.9101C98.915 10.9101 98.5081 11.1244 98.2558 11.5517C98.0035 11.9789 97.8773 12.5364 97.8773 13.2228V18.666H95.6284V8.99757H97.8773V10.1532C98.1717 9.73274 98.5108 9.39635 98.896 9.14406C99.2812 8.89177 99.6773 8.76562 100.084 8.76562C100.434 8.76562 100.764 8.82531 101.072 8.94467C101.38 9.06403 101.645 9.24986 101.871 9.50215L100.757 11.4147Z" fill="#BF9000"/>
<path d="M113.875 9.0008H116.354L118.603 14.7601L121.293 8.26562L124.109 14.7804L126.378 9.0008H128.86L124.342 19.3407L121.294 12.8259L118.394 19.3407L113.875 9.0008Z" fill="#00783F"/>
<path d="M130.674 11.5211L129.749 9.92323C130.198 9.65738 130.765 9.39831 131.451 9.14601C132.137 8.89372 132.936 8.76758 133.847 8.76758C135.024 8.76758 135.994 9.03072 136.757 9.55565C137.521 10.0806 137.904 10.8198 137.904 11.7734V18.6666H135.676V17.3428C135.368 17.8609 134.913 18.2461 134.31 18.4984C133.708 18.7507 133.098 18.8769 132.482 18.8769C131.865 18.8769 131.302 18.7575 130.791 18.5201C130.279 18.2828 129.87 17.9314 129.562 17.4689C129.254 17.0064 129.099 16.4462 129.099 15.787C129.099 14.8483 129.429 14.1023 130.087 13.5489C130.744 12.9955 131.676 12.7188 132.882 12.7188C133.513 12.7188 134.059 12.7893 134.522 12.929C134.985 13.0687 135.37 13.2234 135.678 13.3916V12.2142C135.678 11.6255 135.485 11.2132 135.1 10.9744C134.715 10.7357 134.221 10.6177 133.619 10.6177C132.932 10.6177 132.322 10.7303 131.79 10.9541C131.256 11.1779 130.884 11.3678 130.674 11.5211ZM131.389 15.6622C131.389 16.1532 131.557 16.5276 131.893 16.7866C132.23 17.0457 132.664 17.1759 133.197 17.1759C133.87 17.1759 134.45 16.9698 134.941 16.5561C135.431 16.1423 135.676 15.5645 135.676 14.8226V14.6761C135.004 14.3682 134.253 14.2135 133.427 14.2135C132.713 14.2135 132.194 14.3438 131.872 14.6028C131.549 14.8592 131.389 15.2132 131.389 15.6622Z" fill="#00783F"/>
<path d="M141.992 23.2883H139.701V8.99725H141.992V10.6154C142.342 10.0132 142.797 9.54659 143.358 9.21834C143.918 8.88873 144.562 8.72461 145.292 8.72461C146.133 8.72461 146.91 8.92807 147.625 9.33363C148.34 9.74056 148.913 10.3211 149.349 11.078C149.783 11.8348 150 12.7531 150 13.8315C150 14.9112 149.783 15.8281 149.349 16.585C148.915 17.3418 148.34 17.9197 147.625 18.3185C146.91 18.7172 146.133 18.918 145.292 18.918C144.563 18.918 143.919 18.7566 143.358 18.4351C142.797 18.1123 142.342 17.6511 141.992 17.0475V23.2883ZM147.645 13.8315C147.645 12.8644 147.358 12.1183 146.784 11.5934C146.209 11.0685 145.529 10.8053 144.745 10.8053C144.296 10.8053 143.862 10.9206 143.442 11.1526C143.021 11.3832 142.674 11.7236 142.401 12.1726C142.129 12.6216 141.992 13.175 141.992 13.8328C141.992 14.492 142.129 15.0455 142.401 15.4931C142.674 15.942 143.021 16.2811 143.442 16.5117C143.862 16.7423 144.296 16.859 144.745 16.859C145.529 16.859 146.209 16.5958 146.784 16.0709C147.359 15.5433 147.645 14.7972 147.645 13.8315Z" fill="#00783F"/>
<path d="M113.015 9.26332L109.561 8.09003C109.396 8.03306 109.352 7.81875 109.484 7.70481L109.999 7.25313V7.23278C109.529 6.81772 108.921 6.60883 108.175 6.60883C107.489 6.60883 106.984 6.76482 106.663 7.08086C106.339 7.39691 106.18 7.76313 106.18 8.18498C106.18 8.75874 106.438 9.24975 106.957 9.65532C107.113 9.77739 107.297 9.89811 107.513 10.0202C108.467 10.8761 110.207 12.6557 110.583 14.8748C110.607 15.0213 110.622 15.1569 110.627 15.2817C110.599 14.8395 110.473 14.4733 110.245 14.1857C109.986 13.8561 109.617 13.5767 109.141 13.3447C108.665 13.1128 108.118 12.8863 107.502 12.6625C107.137 12.5363 106.731 12.3668 106.282 12.1579C105.834 11.9476 105.407 11.675 105.001 11.3373C104.594 11.0009 104.258 10.5899 103.991 10.107C103.725 9.62412 103.592 9.03815 103.592 8.35181C103.592 7.56781 103.795 6.8774 104.201 6.28058C104.608 5.68648 105.158 5.21988 105.85 4.88349C106.545 4.54846 107.333 4.37891 108.214 4.37891C109.084 4.37891 109.841 4.53625 110.485 4.85229C110.967 5.08695 111.391 5.36773 111.76 5.69326C111.764 5.69733 111.771 5.69733 111.775 5.69326L112.227 5.29855C112.358 5.18325 112.566 5.25379 112.6 5.42605L113.31 9.00289C113.346 9.17515 113.18 9.31893 113.015 9.26332Z" fill="#00783F"/>
<path d="M113.513 14.9825C113.513 15.8954 113.278 16.6794 112.809 17.3372C112.338 17.9951 111.733 18.4997 110.99 18.851C110.246 19.2009 109.457 19.3759 108.616 19.3759C107.747 19.3759 106.948 19.205 106.219 18.8605C105.489 18.5187 104.849 18.0588 104.294 17.4837C104.023 17.203 103.78 16.91 103.565 16.6048C103.177 16.0568 103.345 15.285 103.94 14.9445C104.456 14.6488 105.114 14.8374 105.469 15.3148C105.776 15.7285 106.107 16.0839 106.458 16.381C106.832 16.6957 107.247 16.9127 107.704 17.032C107.725 17.0375 107.744 17.0429 107.763 17.047C108.002 17.1134 108.255 17.1528 108.526 17.1541C108.838 17.1582 109.42 17.1595 109.926 16.8394C109.932 16.8394 109.936 16.8354 109.941 16.8299C110.056 16.7635 110.164 16.6875 110.263 16.6007C110.675 16.2358 110.881 15.7597 110.881 15.1711V15.148C110.881 15.0937 110.88 15.0354 110.876 14.9744C110.87 14.8496 110.855 14.7153 110.831 14.5675C110.455 12.3484 108.715 10.5688 107.761 9.71289C108.266 9.99638 108.933 10.2826 109.769 10.5674C110.358 10.7627 110.94 11.0435 111.515 11.4084C112.088 11.7733 112.564 12.2453 112.944 12.8272C113.325 13.4104 113.513 14.128 113.513 14.9825Z" fill="#BF9000"/>
<path d="M60.6966 26.4601V35.2871H59.5364V28.3894L56.6487 33.1938H56.4974L53.6097 28.402V35.2871H52.437V26.4601H53.761L56.5731 31.1258L59.3725 26.4601H60.6966ZM67.9434 28.9821H69.0405V35.2871H67.9434V34.2026C67.397 35.0349 66.6025 35.451 65.5601 35.451C64.6774 35.451 63.925 35.1316 63.3029 34.4927C62.6808 33.8454 62.3697 33.0593 62.3697 32.1346C62.3697 31.2099 62.6808 30.428 63.3029 29.7891C63.925 29.1418 64.6774 28.8182 65.5601 28.8182C66.6025 28.8182 67.397 29.2343 67.9434 30.0665V28.9821ZM65.6988 34.3918C66.3377 34.3918 66.8715 34.1774 67.3003 33.7487C67.729 33.3115 67.9434 32.7735 67.9434 32.1346C67.9434 31.4957 67.729 30.9619 67.3003 30.5331C66.8715 30.096 66.3377 29.8774 65.6988 29.8774C65.0683 29.8774 64.5387 30.096 64.1099 30.5331C63.6812 30.9619 63.4668 31.4957 63.4668 32.1346C63.4668 32.7735 63.6812 33.3115 64.1099 33.7487C64.5387 34.1774 65.0683 34.3918 65.6988 34.3918ZM72.0519 30.0413C72.4134 29.2595 73.0691 28.8686 74.0191 28.8686V30.0161C73.481 29.9909 73.0187 30.1338 72.632 30.4448C72.2453 30.7559 72.0519 31.2561 72.0519 31.9454V35.2871H70.9548V28.9821H72.0519V30.0413ZM80.6788 35.2871H79.3169L76.4418 32.2985V35.2871H75.3447V26.4601H76.4418V31.7689L79.1656 28.9821H80.5779L77.5641 32.0337L80.6788 35.2871ZM82.1416 32.639C82.2509 33.2022 82.5073 33.6394 82.9108 33.9504C83.3228 34.2615 83.8272 34.417 84.424 34.417C85.2563 34.417 85.8616 34.1102 86.2399 33.4965L87.173 34.0261C86.5594 34.9761 85.6346 35.451 84.3988 35.451C83.3984 35.451 82.583 35.14 81.9525 34.5179C81.3304 33.8874 81.0193 33.093 81.0193 32.1346C81.0193 31.1846 81.3262 30.3944 81.9399 29.7639C82.5536 29.1334 83.348 28.8182 84.3232 28.8182C85.2479 28.8182 86.0003 29.146 86.5804 29.8017C87.1688 30.4491 87.4631 31.2309 87.4631 32.1472C87.4631 32.3069 87.4505 32.4709 87.4252 32.639H82.1416ZM84.3232 29.8522C83.7347 29.8522 83.2471 30.0203 82.8604 30.3566C82.4737 30.6844 82.2341 31.1258 82.1416 31.6806H86.3534C86.2609 31.0838 86.0255 30.6298 85.6472 30.3187C85.2689 30.0077 84.8276 29.8522 84.3232 29.8522ZM92.2216 30.0413H90.5445V33.4587C90.5445 33.7697 90.6033 33.9925 90.721 34.127C90.8471 34.2531 91.0363 34.3203 91.2885 34.3287C91.5407 34.3287 91.8517 34.3203 92.2216 34.3035V35.2871C91.2632 35.4132 90.5613 35.3375 90.1157 35.0601C89.6702 34.7743 89.4474 34.2405 89.4474 33.4587V30.0413H88.199V28.9821H89.4474V27.5445L90.5445 27.2167V28.9821H92.2216V30.0413ZM97.29 28.8182C98.1727 28.8182 98.9251 29.1418 99.5472 29.7891C100.169 30.428 100.48 31.2099 100.48 32.1346C100.48 33.0593 100.169 33.8454 99.5472 34.4927C98.9251 35.1316 98.1727 35.451 97.29 35.451C96.2475 35.451 95.4531 35.0349 94.9067 34.2026V37.8091H93.8096V28.9821H94.9067V30.0665C95.4531 29.2343 96.2475 28.8182 97.29 28.8182ZM97.1512 34.3918C97.7817 34.3918 98.3114 34.1774 98.7401 33.7487C99.1689 33.3115 99.3832 32.7735 99.3832 32.1346C99.3832 31.4957 99.1689 30.9619 98.7401 30.5331C98.3114 30.096 97.7817 29.8774 97.1512 29.8774C96.5123 29.8774 95.9785 30.096 95.5498 30.5331C95.121 30.9619 94.9067 31.4957 94.9067 32.1346C94.9067 32.7735 95.121 33.3115 95.5498 33.7487C95.9785 34.1774 96.5123 34.3918 97.1512 34.3918ZM102.042 35.2871V26.0818H103.139V35.2871H102.042ZM110.285 28.9821H111.382V35.2871H110.285V34.2026C109.739 35.0349 108.944 35.451 107.902 35.451C107.019 35.451 106.267 35.1316 105.645 34.4927C105.023 33.8454 104.711 33.0593 104.711 32.1346C104.711 31.2099 105.023 30.428 105.645 29.7891C106.267 29.1418 107.019 28.8182 107.902 28.8182C108.944 28.8182 109.739 29.2343 110.285 30.0665V28.9821ZM108.041 34.3918C108.679 34.3918 109.213 34.1774 109.642 33.7487C110.071 33.3115 110.285 32.7735 110.285 32.1346C110.285 31.4957 110.071 30.9619 109.642 30.5331C109.213 30.096 108.679 29.8774 108.041 29.8774C107.41 29.8774 106.88 30.096 106.452 30.5331C106.023 30.9619 105.809 31.4957 105.809 32.1346C105.809 32.7735 106.023 33.3115 106.452 33.7487C106.88 34.1774 107.41 34.3918 108.041 34.3918ZM116.26 35.451C115.31 35.451 114.52 35.1358 113.889 34.5053C113.259 33.8664 112.943 33.0761 112.943 32.1346C112.943 31.193 113.259 30.407 113.889 29.7765C114.52 29.1376 115.31 28.8182 116.26 28.8182C116.882 28.8182 117.441 28.9695 117.937 29.2721C118.433 29.5663 118.803 29.9657 119.047 30.4701L118.126 30.9997C117.966 30.6634 117.718 30.3944 117.382 30.1926C117.054 29.9909 116.68 29.89 116.26 29.89C115.629 29.89 115.1 30.1044 114.671 30.5331C114.251 30.9619 114.041 31.4957 114.041 32.1346C114.041 32.7651 114.251 33.2947 114.671 33.7235C115.1 34.1522 115.629 34.3666 116.26 34.3666C116.68 34.3666 117.059 34.2699 117.395 34.0765C117.731 33.8748 117.987 33.6058 118.164 33.2695L119.097 33.8117C118.828 34.3077 118.441 34.707 117.937 35.0097C117.433 35.3039 116.874 35.451 116.26 35.451ZM121.116 32.639C121.225 33.2022 121.481 33.6394 121.885 33.9504C122.297 34.2615 122.801 34.417 123.398 34.417C124.23 34.417 124.836 34.1102 125.214 33.4965L126.147 34.0261C125.533 34.9761 124.609 35.451 123.373 35.451C122.372 35.451 121.557 35.14 120.926 34.5179C120.304 33.8874 119.993 33.093 119.993 32.1346C119.993 31.1846 120.3 30.3944 120.914 29.7639C121.527 29.1334 122.322 28.8182 123.297 28.8182C124.222 28.8182 124.974 29.146 125.554 29.8017C126.143 30.4491 126.437 31.2309 126.437 32.1472C126.437 32.3069 126.424 32.4709 126.399 32.639H121.116ZM123.297 29.8522C122.709 29.8522 122.221 30.0203 121.834 30.3566C121.448 30.6844 121.208 31.1258 121.116 31.6806H125.327C125.235 31.0838 124.999 30.6298 124.621 30.3187C124.243 30.0077 123.802 29.8522 123.297 29.8522Z" fill="#807373"/>
</svg>
