<svg width="16" height="10" viewBox="0 0 16 10" fill="none" xmlns="http://www.w3.org/2000/svg">
<path fill-rule="evenodd" clip-rule="evenodd" d="M8.97081 4.99449L8.96954 4.69941C8.9594 3.52901 8.88885 2.48478 8.76717 1.82302C8.76717 1.81109 8.63445 1.15476 8.5499 0.936295C8.41718 0.620525 8.17718 0.352487 7.87627 0.182669C7.63537 0.0615008 7.38264 -7.09642e-07 7.1181 -7.32769e-07C6.91015 0.00963804 6.5672 0.114283 6.32243 0.202017L6.11902 0.27997C4.77177 0.815127 2.19634 2.5638 1.20999 3.63319L1.13727 3.70794L0.812724 4.0582C0.608181 4.32623 0.5 4.65394 0.5 5.00642C0.5 5.32219 0.596362 5.63796 0.789088 5.89315C0.846784 5.97583 0.93972 6.08189 1.02244 6.17151L1.33833 6.50218C2.42538 7.60357 4.77904 9.14847 5.99902 9.66036C5.99902 9.67138 6.7572 9.98807 7.1181 10L7.16628 10C7.71991 10 8.23718 9.68423 8.50172 9.17386C8.57399 9.03433 8.64331 8.76101 8.69604 8.52097L8.79081 8.06774C8.89899 7.3389 8.97081 6.22086 8.97081 4.99449ZM14.2473 6.26528C14.9391 6.26528 15.5 5.69892 15.5 5.00037C15.5 4.30182 14.9391 3.73545 14.2473 3.73545L11.1646 4.00808C10.6219 4.00808 10.1819 4.45144 10.1819 5.00037C10.1819 5.54837 10.6219 5.99266 11.1646 5.99266L14.2473 6.26528Z" fill="#464754"/>
</svg>
