<svg width="79" height="88" viewBox="0 0 79 88" fill="none" xmlns="http://www.w3.org/2000/svg">
<path d="M11.0795 7.7466C11.5696 4.29462 14.7652 1.89351 18.2172 2.38357L63.4579 8.80617C66.9099 9.29623 69.311 12.4919 68.821 15.9439L59.7485 79.8502C59.2585 83.3022 56.0628 85.7033 52.6108 85.2132L7.37007 78.7906C3.91809 78.3006 1.51698 75.1049 2.00704 71.6529L11.0795 7.7466Z" fill="white" stroke="#EBF5F0" stroke-width="1.80372"/>
<path d="M10.1866 7.61983C10.7467 3.67471 14.3988 0.930588 18.344 1.49066L63.5847 7.91326C67.5298 8.47333 70.2739 12.1255 69.7139 16.0706L63.5447 59.5265C62.9846 63.4716 59.3324 66.2157 55.3873 65.6557L10.1466 59.2331C6.20144 58.673 3.45731 55.0208 4.01738 51.0757L10.1866 7.61983Z" fill="#EBF5F0"/>
<g opacity="0.8">
<path d="M46.1205 39.8181L44.0569 32.0392C43.6821 30.6156 42.947 29.734 41.9917 29.5472C41.0464 29.3619 40.0284 29.9026 39.1418 31.0857L36.7715 34.2366C36.2722 34.902 35.6454 35.2528 35.0232 35.2156C34.3896 35.187 33.8116 34.7674 33.3981 34.044L33.2197 33.7323C32.6419 32.7401 31.8301 32.1851 30.9243 32.1486C30.0186 32.112 29.1665 32.6251 28.5167 33.5658L26.3094 36.7806C25.5164 37.9464 25.3695 39.4084 25.9258 40.6942C26.4822 41.9799 27.6411 42.8706 29.0202 43.0663L41.6796 44.8635C43.0091 45.0523 44.3446 44.5567 45.2381 43.5381C46.1515 42.5224 46.4713 41.1258 46.1205 39.8181Z" fill="#00783F"/>
<path d="M32.3903 29.2371C34.2424 29.5001 35.9591 28.1962 36.2247 26.3249C36.4904 24.4535 35.2044 22.7234 33.3524 22.4604C31.5004 22.1975 29.7837 23.5014 29.518 25.3727C29.2523 27.2441 30.5383 28.9742 32.3903 29.2371Z" fill="#00783F"/>
</g>
<rect x="5.89062" y="63.5469" width="27.6571" height="3.64509" rx="1.82254" transform="rotate(8.08 5.89062 63.5469)" fill="#2F9162"/>
<rect opacity="0.2" x="45.7744" y="69.207" width="12.6261" height="3.64509" rx="1.82254" transform="rotate(8.08 45.7744 69.207)" fill="#00783F"/>
<rect opacity="0.2" x="4.86572" y="70.7695" width="19.841" height="3.64509" rx="1.82254" transform="rotate(8.08 4.86572 70.7695)" fill="#00783F"/>
<rect x="41.1777" y="75.9219" width="16.2335" height="3.64509" rx="1.82254" transform="rotate(8.08 41.1777 75.9219)" fill="#2F9162"/>
<path d="M9.34011 15.9462C8.85005 12.4942 11.2512 9.29856 14.7031 8.8085L59.9439 2.3859C63.3959 1.89584 66.5915 4.29695 67.0816 7.74894L76.154 71.6552C76.6441 75.1072 74.243 78.3029 70.791 78.793L25.5503 85.2156C22.0983 85.7056 18.9026 83.3045 18.4126 79.8525L9.34011 15.9462Z" fill="white" stroke="#EBF5F0" stroke-width="1.80372"/>
<path d="M8.4472 16.073C7.88713 12.1278 10.6313 8.47566 14.5764 7.91559L59.8171 1.49299C63.7622 0.932924 67.4144 3.67705 67.9745 7.62217L74.1437 51.078C74.7038 55.0232 71.9596 58.6753 68.0145 59.2354L22.7738 65.658C18.8287 66.2181 15.1765 63.474 14.6164 59.5288L8.4472 16.073Z" fill="#EBF5F0"/>
<g opacity="0.8">
<path d="M51.9222 36.9982L47.7751 30.1009C47.0189 28.8379 46.0674 28.1957 45.0979 28.2822C44.1384 28.3673 43.311 29.1699 42.7888 30.5531L41.3891 34.2392C41.0947 35.0173 40.5904 35.5286 39.9824 35.6661C39.3659 35.8149 38.6939 35.5729 38.0954 34.9931L37.8373 34.7434C37.0062 33.9512 36.0719 33.6441 35.1918 33.8611C34.3117 34.078 33.6361 34.808 33.2738 35.8923L32.0484 39.5945C31.6112 40.935 31.8771 42.3801 32.7693 43.4602C33.6615 44.5403 35.0225 45.0732 36.4015 44.8774L49.061 43.0802C50.3905 42.8915 51.5353 42.0437 52.11 40.8168C52.7046 39.5869 52.623 38.1565 51.9222 36.9982Z" fill="#00783F"/>
<path d="M35.79 30.6581C37.6421 30.3952 38.928 28.665 38.6624 26.7937C38.3967 24.9223 36.68 23.6184 34.828 23.8814C32.976 24.1443 31.69 25.8744 31.9556 27.7458C32.2213 29.6171 33.938 30.921 35.79 30.6581Z" fill="#00783F"/>
</g>
<rect x="19.8862" y="70.9805" width="27.6571" height="3.64509" rx="1.82254" transform="rotate(-8.08 19.8862 70.9805)" fill="#2F9162"/>
<rect opacity="0.2" x="59.7695" y="65.3203" width="12.6261" height="3.64509" rx="1.82254" transform="rotate(-8.08 59.7695 65.3203)" fill="#00783F"/>
<rect opacity="0.2" x="20.9111" y="78.2031" width="19.841" height="3.64509" rx="1.82254" transform="rotate(-8.08 20.9111 78.2031)" fill="#00783F"/>
<rect x="57.2231" y="73.0469" width="16.2335" height="3.64509" rx="1.82254" transform="rotate(-8.08 57.2231 73.0469)" fill="#2F9162"/>
<path d="M10.2539 11.5274C10.2539 8.04081 13.0804 5.21436 16.5669 5.21436H62.2613C65.7479 5.21436 68.5743 8.04081 68.5743 11.5274V76.0745C68.5743 79.5611 65.7479 82.3875 62.2613 82.3875H16.5669C13.0804 82.3875 10.2539 79.5611 10.2539 76.0745V11.5274Z" fill="white" stroke="#EBF5F0" stroke-width="1.80372"/>
<path d="M9.35205 11.5274C9.35205 7.54272 12.5823 4.3125 16.5669 4.3125H62.2613C66.246 4.3125 69.4762 7.54272 69.4762 11.5274V55.419C69.4762 59.4037 66.246 62.6339 62.2613 62.6339H16.5669C12.5823 62.6339 9.35205 59.4037 9.35205 55.419V11.5274Z" fill="#EBF5F0"/>
<g opacity="0.8">
<path d="M49.4545 38.3549L46.318 30.9432C45.7468 29.5865 44.8951 28.8169 43.9231 28.7663C42.9611 28.7157 42.0292 29.3941 41.3177 30.6901L39.4138 34.1428C39.0129 34.8718 38.4417 35.3072 37.8205 35.3578C37.1892 35.4186 36.5579 35.0845 36.0468 34.4263L35.8263 34.1428C35.1149 33.2417 34.2331 32.8063 33.3312 32.8974C32.4293 32.9885 31.6577 33.6163 31.1467 34.639L29.4131 38.1322C28.7918 39.3978 28.8519 40.866 29.5835 42.0608C30.315 43.2555 31.5876 43.9744 32.9805 43.9744H45.7669C47.1096 43.9744 48.3622 43.296 49.1038 42.162C49.8653 41.028 49.9856 39.6003 49.4545 38.3549Z" fill="#00783F"/>
<path d="M34.3738 29.8095C36.2444 29.8095 37.7608 28.2773 37.7608 26.3872C37.7608 24.4971 36.2444 22.9648 34.3738 22.9648C32.5032 22.9648 30.9868 24.4971 30.9868 26.3872C30.9868 28.2773 32.5032 29.8095 34.3738 29.8095Z" fill="#00783F"/>
</g>
<rect x="12.9595" y="67.5" width="27.6571" height="3.64509" rx="1.82254" fill="#2F9162"/>
<rect opacity="0.2" x="53.2427" y="67.5" width="12.6261" height="3.64509" rx="1.82254" fill="#00783F"/>
<rect opacity="0.2" x="12.9595" y="74.793" width="19.841" height="3.64509" rx="1.82254" fill="#00783F"/>
<rect x="49.6353" y="74.793" width="16.2335" height="3.64509" rx="1.82254" fill="#2F9162"/>
</svg>
