<svg width="92" height="88" viewBox="0 0 92 88" fill="none" xmlns="http://www.w3.org/2000/svg">
<path d="M2.0071 15.9423C1.51704 12.4903 3.91815 9.29466 7.37013 8.8046L52.6109 2.382C56.0629 1.89194 59.2585 4.29305 59.7486 7.74503L68.821 71.6513C69.3111 75.1033 66.91 78.299 63.458 78.789L18.2173 85.2116C14.7653 85.7017 11.5696 83.3006 11.0796 79.8486L2.0071 15.9423Z" fill="white" stroke="#FDF3F3" stroke-width="1.80372"/>
<path d="M1.11419 16.0691C0.554123 12.1239 3.29825 8.47176 7.24337 7.91169L52.4841 1.48909C56.4292 0.929018 60.0814 3.67315 60.6415 7.61827L66.8107 51.0741C67.3708 55.0193 64.6266 58.6714 60.6815 59.2315L15.4408 65.6541C11.4957 66.2142 7.84347 63.4701 7.2834 59.5249L1.11419 16.0691Z" fill="#FDF3F3"/>
<g opacity="0.8">
<path d="M44.5896 36.9943L40.4426 30.097C39.6863 28.834 38.7349 28.1918 37.7654 28.2783C36.8058 28.3634 35.9785 29.166 35.4563 30.5492L34.0566 34.2352C33.7622 35.0134 33.2579 35.5247 32.6499 35.6622C32.0334 35.811 31.3614 35.569 30.7629 34.9892L30.5048 34.7395C29.6737 33.9473 28.7394 33.6402 27.8593 33.8571C26.9792 34.0741 26.3035 34.8041 25.9413 35.8884L24.7159 39.5906C24.2787 40.9311 24.5446 42.3762 25.4368 43.4563C26.3289 44.5364 27.69 45.0693 29.069 44.8735L41.7285 43.0763C43.0579 42.8876 44.2027 42.0398 44.7775 40.8128C45.3721 39.583 45.2905 38.1526 44.5896 36.9943Z" fill="#E56060"/>
<path d="M28.4575 30.6542C30.3095 30.3912 31.5955 28.6611 31.3299 26.7898C31.0642 24.9184 29.3475 23.6145 27.4955 23.8775C25.6434 24.1404 24.3575 25.8705 24.6231 27.7419C24.8888 29.6132 26.6055 30.9171 28.4575 30.6542Z" fill="#E56060"/>
</g>
<rect x="12.5542" y="70.9824" width="27.6571" height="3.64509" rx="1.82254" transform="rotate(-8.08 12.5542 70.9824)" fill="#E78B8B"/>
<rect opacity="0.25" x="52.437" y="65.3184" width="12.6261" height="3.64509" rx="1.82254" transform="rotate(-8.08 52.437 65.3184)" fill="#E56060"/>
<rect opacity="0.25" x="13.5796" y="78.2051" width="19.841" height="3.64509" rx="1.82254" transform="rotate(-8.08 13.5796 78.2051)" fill="#E56060"/>
<rect x="49.8906" y="73.0469" width="16.2335" height="3.64509" rx="1.82254" transform="rotate(-8.08 49.8906 73.0469)" fill="#E78B8B"/>
<path d="M31.4125 7.75051C31.9026 4.29853 35.0982 1.89741 38.5502 2.38747L83.7909 8.81007C87.2429 9.30013 89.644 12.4958 89.154 15.9478L80.0815 79.8541C79.5915 83.3061 76.3958 85.7072 72.9438 85.2171L27.7031 78.7945C24.2511 78.3045 21.85 75.1088 22.34 71.6568L31.4125 7.75051Z" fill="white" stroke="#EBF5F0" stroke-width="1.80372"/>
<path d="M30.5196 7.62374C31.0797 3.67862 34.7318 0.934494 38.677 1.49456L83.9177 7.91716C87.8628 8.47723 90.607 12.1294 90.0469 16.0745L83.8777 59.5304C83.3176 63.4755 79.6654 66.2197 75.7203 65.6596L30.4796 59.237C26.5344 58.6769 23.7903 55.0247 24.3504 51.0796L30.5196 7.62374Z" fill="#EBF5F0"/>
<g opacity="0.8">
<path d="M66.453 39.822L64.3894 32.0431C64.0146 30.6195 63.2795 29.7379 62.3242 29.5511C61.3789 29.3658 60.3609 29.9065 59.4743 31.0896L57.104 34.2405C56.6047 34.9059 55.978 35.2567 55.3557 35.2195C54.7222 35.1909 54.1441 34.7713 53.7306 34.0479L53.5522 33.7362C52.9744 32.744 52.1626 32.189 51.2569 32.1525C50.3511 32.1159 49.499 32.629 48.8493 33.5697L46.6419 36.7846C45.8489 37.9503 45.702 39.4124 46.2584 40.6981C46.8147 41.9838 47.9736 42.8745 49.3527 43.0702L62.0121 44.8674C63.3416 45.0562 64.6771 44.5606 65.5707 43.542C66.4841 42.5263 66.8038 41.1297 66.453 39.822Z" fill="#00783F"/>
<path d="M52.7229 29.2411C54.5749 29.504 56.2916 28.2001 56.5573 26.3288C56.8229 24.4574 55.5369 22.7273 53.6849 22.4643C51.8329 22.2014 50.1162 23.5053 49.8505 25.3766C49.5849 27.248 50.8708 28.9781 52.7229 29.2411Z" fill="#00783F"/>
</g>
<rect x="26.2246" y="63.5449" width="27.6571" height="3.64509" rx="1.82254" transform="rotate(8.08 26.2246 63.5449)" fill="#2F9162"/>
<rect opacity="0.2" x="66.1074" y="69.209" width="12.6261" height="3.64509" rx="1.82254" transform="rotate(8.08 66.1074 69.209)" fill="#00783F"/>
<rect opacity="0.2" x="25.1992" y="70.7676" width="19.841" height="3.64509" rx="1.82254" transform="rotate(8.08 25.1992 70.7676)" fill="#00783F"/>
<rect x="61.5112" y="75.9219" width="16.2335" height="3.64509" rx="1.82254" transform="rotate(8.08 61.5112 75.9219)" fill="#2F9162"/>
<path d="M16.2539 11.5274C16.2539 8.04081 19.0804 5.21436 22.5669 5.21436H68.2613C71.7479 5.21436 74.5743 8.04081 74.5743 11.5274V76.0745C74.5743 79.5611 71.7479 82.3875 68.2613 82.3875H22.5669C19.0804 82.3875 16.2539 79.5611 16.2539 76.0745V11.5274Z" fill="white" stroke="#FAF5E8" stroke-width="1.80372"/>
<path d="M15.3521 11.5274C15.3521 7.54272 18.5823 4.3125 22.5669 4.3125H68.2613C72.246 4.3125 75.4762 7.54272 75.4762 11.5274V55.419C75.4762 59.4037 72.246 62.6339 68.2613 62.6339H22.5669C18.5823 62.6339 15.3521 59.4037 15.3521 55.419V11.5274Z" fill="#FAF5E8"/>
<g opacity="0.7">
<path d="M55.4545 38.3549L52.318 30.9432C51.7468 29.5865 50.8951 28.8169 49.9231 28.7663C48.9611 28.7157 48.0292 29.3941 47.3177 30.6901L45.4138 34.1428C45.0129 34.8718 44.4417 35.3072 43.8205 35.3578C43.1892 35.4186 42.5579 35.0845 42.0468 34.4263L41.8263 34.1428C41.1149 33.2417 40.2331 32.8063 39.3312 32.8974C38.4293 32.9885 37.6577 33.6163 37.1467 34.639L35.4131 38.1322C34.7918 39.3978 34.8519 40.866 35.5835 42.0608C36.315 43.2555 37.5876 43.9744 38.9805 43.9744H51.7669C53.1096 43.9744 54.3622 43.296 55.1038 42.162C55.8653 41.028 55.9856 39.6003 55.4545 38.3549Z" fill="#C89211"/>
<path d="M40.3738 29.8095C42.2444 29.8095 43.7608 28.2773 43.7608 26.3872C43.7608 24.4971 42.2444 22.9648 40.3738 22.9648C38.5032 22.9648 36.9868 24.4971 36.9868 26.3872C36.9868 28.2773 38.5032 29.8095 40.3738 29.8095Z" fill="#C89211"/>
</g>
<rect x="18.9595" y="67.5" width="27.6571" height="3.64509" rx="1.82254" fill="#D9B359"/>
<rect opacity="0.2" x="59.2427" y="67.5" width="12.6261" height="3.64509" rx="1.82254" fill="#C89211"/>
<rect opacity="0.2" x="18.9595" y="74.793" width="19.841" height="3.64509" rx="1.82254" fill="#C89211"/>
<rect x="55.6353" y="74.793" width="16.2335" height="3.64509" rx="1.82254" fill="#D9B359"/>
</svg>
