<svg width="36" height="36" viewBox="0 0 36 36" fill="none" xmlns="http://www.w3.org/2000/svg">
<circle cx="18" cy="18" r="18" fill="#EDF0F4"/>
<path d="M23.4008 14.3841C23.017 14.1633 22.5235 14.1633 22.0849 14.3841L19.0144 16.2054L16.9308 17.3645L13.9151 19.1859C13.5313 19.4066 13.0379 19.4066 12.5992 19.1859L10.2415 17.7509C9.8577 17.5301 9.58355 17.0885 9.58355 16.5918V13.8322C9.58355 13.3906 9.80287 12.9491 10.2415 12.6731L12.5992 11.2933C12.983 11.0725 13.4765 11.0725 13.9151 11.2933L16.2728 12.7283C16.6567 12.9491 16.9308 13.3906 16.9308 13.8873V15.7087L19.0144 14.4945V12.6179C19.0144 12.1764 18.795 11.7348 18.3564 11.4589L13.97 8.8648C13.5862 8.64403 13.0927 8.64403 12.654 8.8648L8.15796 11.5141C7.71932 11.7348 7.5 12.1764 7.5 12.6179V17.806C7.5 18.2476 7.71932 18.6891 8.15796 18.9651L12.5992 21.5592C12.983 21.7799 13.4765 21.7799 13.9151 21.5592L16.9308 19.793L19.0144 18.5787L22.03 16.8126C22.4138 16.5918 22.9073 16.5918 23.346 16.8126L25.7037 18.1924C26.0875 18.4132 26.3616 18.8547 26.3616 19.3514V22.1111C26.3616 22.5526 26.1423 22.9942 25.7037 23.2701L23.4008 24.65C23.017 24.8707 22.5235 24.8707 22.0849 24.65L19.7272 23.2701C19.3433 23.0494 19.0692 22.6078 19.0692 22.1111V20.3449L16.9856 21.5592V23.3805C16.9856 23.8221 17.205 24.2636 17.6436 24.5396L22.0849 27.1336C22.4687 27.3544 22.9621 27.3544 23.4008 27.1336L27.842 24.5396C28.2258 24.3188 28.5 23.8773 28.5 23.3805V18.1372C28.5 17.6957 28.2807 17.2541 27.842 16.9782L23.4008 14.3841Z" fill="#8247E5"/>
</svg>
