<svg width="68" height="88" viewBox="0 0 68 88" fill="none" xmlns="http://www.w3.org/2000/svg">
<path d="M1.6665 8.66406C1.6665 4.79806 4.80051 1.66406 8.6665 1.66406H59.3332C63.1992 1.66406 66.3332 4.79807 66.3332 8.66406V79.3307C66.3332 83.1967 63.1992 86.3307 59.3332 86.3307H8.6665C4.80051 86.3307 1.6665 83.1967 1.6665 79.3307V8.66406Z" fill="white" stroke="#EBF5F0" stroke-width="2"/>
<path d="M1 9C1 4.58172 4.58172 1 9 1H59.6667C64.0849 1 67.6667 4.58172 67.6667 9V57C67.6667 61.4183 64.0849 65 59.6667 65H9C4.58172 65 1 61.4183 1 57V9Z" fill="#EBF5F0"/>
<g opacity="0.8">
<path d="M45.1333 38.0212L41.6555 29.8879C41.0222 28.399 40.0778 27.5545 39 27.499C37.9333 27.4434 36.9 28.1879 36.1111 29.6101L34 33.399C33.5555 34.199 32.9222 34.6768 32.2333 34.7323C31.5333 34.799 30.8333 34.4323 30.2667 33.7101L30.0222 33.399C29.2333 32.4101 28.2555 31.9323 27.2555 32.0323C26.2555 32.1323 25.4 32.8212 24.8333 33.9434L22.9111 37.7768C22.2222 39.1657 22.2889 40.7768 23.1 42.0879C23.9111 43.399 25.3222 44.1879 26.8667 44.1879H41.0444C42.5333 44.1879 43.9222 43.4434 44.7444 42.199C45.5889 40.9545 45.7222 39.3879 45.1333 38.0212Z" fill="#00783F"/>
<path d="M28.4108 28.6439C30.485 28.6439 32.1664 26.9625 32.1664 24.8884C32.1664 22.8142 30.485 21.1328 28.4108 21.1328C26.3367 21.1328 24.6553 22.8142 24.6553 24.8884C24.6553 26.9625 26.3367 28.6439 28.4108 28.6439Z" fill="#00783F"/>
</g>
<rect x="4.6665" y="70" width="30.6667" height="4" rx="2" fill="#2F9162"/>
<rect opacity="0.2" x="49.333" y="70" width="14" height="4" rx="2" fill="#00783F"/>
<rect opacity="0.2" x="4.6665" y="78.0039" width="22" height="4" rx="2" fill="#00783F"/>
<rect x="45.333" y="78.0039" width="18" height="4" rx="2" fill="#2F9162"/>
</svg>
