<svg width="40" height="40" viewBox="0 0 40 40" fill="none" xmlns="http://www.w3.org/2000/svg">
<path opacity="0.8" d="M17.0981 8.41807C18.6754 6.75547 21.3244 6.75546 22.9018 8.41806L25.5133 11.1708C25.8509 11.5266 26.2509 11.8172 26.6936 12.0283L30.1186 13.6614C32.1873 14.6478 33.0059 17.1672 31.9121 19.1811L30.1011 22.5155C29.867 22.9464 29.7142 23.4167 29.6503 23.903L29.1555 27.665C28.8566 29.9372 26.7135 31.4943 24.4602 31.0764L20.7293 30.3844C20.2472 30.295 19.7526 30.295 19.2705 30.3844L15.5396 31.0764C13.2863 31.4943 11.1432 29.9372 10.8443 27.665L10.3495 23.903C10.2856 23.4167 10.1328 22.9464 9.89872 22.5155L8.08774 19.1811C6.99394 17.1672 7.81252 14.6478 9.88118 13.6614L13.3062 12.0283C13.7489 11.8172 14.1489 11.5266 14.4865 11.1708L17.0981 8.41807Z" fill="#C89211"/>
<path opacity="0.6" d="M22.6905 9.11063C25.0705 8.19041 27.6921 9.70396 28.0852 12.2253L28.5272 15.06C28.6363 15.7602 28.9296 16.4189 29.3769 16.9686L31.1878 19.1938C32.7985 21.173 32.1691 24.134 29.8927 25.287L27.3332 26.5833C26.701 26.9035 26.1652 27.3859 25.7807 27.9812L24.2239 30.3911C22.8393 32.5346 19.8288 32.851 18.0288 31.0423L16.005 29.0087C15.5051 28.5064 14.8807 28.1459 14.1957 27.9641L11.4227 27.2283C8.95629 26.5738 7.72506 23.8084 8.88902 21.5375L10.1977 18.9844C10.5209 18.3537 10.6708 17.6485 10.632 16.9409L10.475 14.0762C10.3353 11.5282 12.5849 9.50271 15.1042 9.90797L17.9368 10.3636C18.6365 10.4762 19.3535 10.4008 20.0145 10.1452L22.6905 9.11063Z" fill="#C89211"/>
<path d="M16.182 25.5V23.852L20.006 19.916C20.8593 19.02 21.286 18.2733 21.286 17.676C21.286 17.2387 21.1473 16.8867 20.87 16.62C20.6033 16.3533 20.2567 16.22 19.83 16.22C18.9873 16.22 18.3633 16.6573 17.958 17.532L16.102 16.444C16.454 15.676 16.9607 15.0893 17.622 14.684C18.2833 14.2787 19.0087 14.076 19.798 14.076C20.8113 14.076 21.6807 14.396 22.406 15.036C23.1313 15.6653 23.494 16.5187 23.494 17.596C23.494 18.7587 22.8807 19.9533 21.654 21.18L19.462 23.372H23.67V25.5H16.182Z" fill="white"/>
</svg>
