<svg width="40" height="40" viewBox="0 0 40 40" fill="none" xmlns="http://www.w3.org/2000/svg">
<path opacity="0.8" d="M17.0981 8.41807C18.6754 6.75547 21.3244 6.75546 22.9018 8.41806L25.5133 11.1708C25.8509 11.5266 26.2509 11.8172 26.6936 12.0283L30.1186 13.6614C32.1873 14.6478 33.0059 17.1672 31.9121 19.1811L30.1011 22.5155C29.867 22.9464 29.7142 23.4167 29.6503 23.903L29.1555 27.665C28.8566 29.9372 26.7135 31.4943 24.4602 31.0764L20.7293 30.3844C20.2472 30.295 19.7526 30.295 19.2705 30.3844L15.5396 31.0764C13.2863 31.4943 11.1432 29.9372 10.8443 27.665L10.3495 23.903C10.2856 23.4167 10.1328 22.9464 9.89872 22.5155L8.08774 19.1811C6.99394 17.1672 7.81252 14.6478 9.88118 13.6614L13.3062 12.0283C13.7489 11.8172 14.1489 11.5266 14.4865 11.1708L17.0981 8.41807Z" fill="#A69F9F"/>
<path opacity="0.6" d="M22.6905 9.11063C25.0705 8.19041 27.6921 9.70396 28.0852 12.2253L28.5272 15.06C28.6363 15.7602 28.9296 16.4189 29.3769 16.9686L31.1878 19.1938C32.7985 21.173 32.1691 24.134 29.8927 25.287L27.3332 26.5833C26.701 26.9035 26.1652 27.3859 25.7807 27.9812L24.2239 30.3911C22.8393 32.5346 19.8288 32.851 18.0288 31.0423L16.005 29.0087C15.5051 28.5064 14.8807 28.1459 14.1957 27.9641L11.4227 27.2283C8.95629 26.5738 7.72506 23.8084 8.88902 21.5375L10.1977 18.9844C10.5209 18.3537 10.6708 17.6485 10.632 16.9409L10.475 14.0762C10.3353 11.5282 12.5849 9.50271 15.1042 9.90797L17.9368 10.3636C18.6365 10.4762 19.3535 10.4008 20.0145 10.1452L22.6905 9.11063Z" fill="#A69F9F"/>
<path d="M21.2886 18.844C22.046 19.068 22.6593 19.4627 23.1286 20.028C23.6086 20.5827 23.8486 21.2547 23.8486 22.044C23.8486 23.196 23.4593 24.0973 22.6806 24.748C21.9126 25.3987 20.9686 25.724 19.8486 25.724C18.974 25.724 18.19 25.5267 17.4966 25.132C16.814 24.7267 16.318 24.1347 16.0086 23.356L17.8966 22.268C18.174 23.132 18.8246 23.564 19.8486 23.564C20.414 23.564 20.8513 23.4307 21.1606 23.164C21.4806 22.8867 21.6406 22.5133 21.6406 22.044C21.6406 21.5853 21.4806 21.2173 21.1606 20.94C20.8513 20.6627 20.414 20.524 19.8486 20.524H19.3686L18.5206 19.244L20.7286 16.364H16.3446V14.3H23.3846V16.124L21.2886 18.844Z" fill="white"/>
</svg>
