<svg width="20" height="20" viewBox="0 0 20 20" fill="none" xmlns="http://www.w3.org/2000/svg">
<path d="M17.1167 15.8658C16.9917 15.9908 16.8334 16.0491 16.6751 16.0491C16.5167 16.0491 16.3584 15.9908 16.2334 15.8658L12.1084 11.7408L12.5501 11.2991L12.9917 10.8574L17.1167 14.9824C17.3584 15.2241 17.3584 15.6241 17.1167 15.8658Z" fill="#464754"/>
<path d="M5.39147 7.73308L10.2248 12.5664C10.5498 12.8914 10.5498 13.4164 10.2248 13.7414L9.4748 14.4997C8.7998 15.1664 7.73314 15.1664 7.06647 14.4997L3.4498 10.8831C2.79147 10.2247 2.79147 9.14975 3.4498 8.48308L4.20814 7.72475C4.53314 7.40808 5.06647 7.40808 5.39147 7.73308Z" fill="#464754"/>
<path d="M15.4915 8.49141L12.3165 11.6581C11.9831 11.9914 11.4498 11.9914 11.1165 11.6581L6.2998 6.84141C5.96647 6.50807 5.96647 5.97474 6.2998 5.64141L9.4748 2.46641C10.1331 1.80807 11.2081 1.80807 11.8748 2.46641L15.4915 6.08307C16.1498 6.74974 16.1498 7.81641 15.4915 8.49141Z" fill="#464754"/>
<path d="M6.6665 18.125H1.6665C1.32484 18.125 1.0415 17.8417 1.0415 17.5C1.0415 17.1583 1.32484 16.875 1.6665 16.875H6.6665C7.00817 16.875 7.2915 17.1583 7.2915 17.5C7.2915 17.8417 7.00817 18.125 6.6665 18.125Z" fill="#464754"/>
</svg>
