<svg width="18" height="18" viewBox="0 0 18 18" fill="none" xmlns="http://www.w3.org/2000/svg">
<path d="M17.7307 11.1771C16.5286 15.9986 11.6446 18.9329 6.82204 17.7306C2.00148 16.5285 -0.933111 11.6449 0.269567 6.82378C1.47119 2.00177 6.35511 -0.932704 11.1762 0.269311C15.9985 1.47133 18.9329 6.35553 17.7306 11.1772L17.7307 11.1771H17.7307Z" fill="#F3BA2F"/>
<path fill-rule="evenodd" clip-rule="evenodd" d="M9.00045 5.712L6.66969 8.0425L6.66974 8.0424L5.31363 6.6864L9.00045 3L12.6885 6.6875L11.3323 8.0435L9.00045 5.712ZM4.3562 7.64379L3 9.00003L4.3561 10.3558L5.71231 8.99974L4.3562 7.64379ZM6.66985 9.95782L9.00061 12.2882L11.3324 9.95672L12.6893 11.312L12.6886 11.3127L9.00061 15.0002L5.3138 11.3138L5.31187 11.3119L6.66985 9.95782ZM13.6448 7.64449L12.2886 9.00054L13.6448 10.3565L15.0009 9.00044L13.6448 7.64449Z" fill="white"/>
<path d="M10.3763 8.99901H10.3769L9.00087 7.62305L7.98378 8.63973L7.86693 8.75661L7.62594 8.99762L7.62402 8.99949L7.62594 9.00146L9.00087 10.3764L10.377 9.00045L10.3777 8.99969L10.3764 8.99901" fill="white"/>
</svg>
