<svg width="16" height="16" viewBox="0 0 16 16" fill="none" xmlns="http://www.w3.org/2000/svg">
<path d="M7.13064 1.90727C7.47046 1.16174 8.52954 1.16174 8.86936 1.90727C9.11853 2.45391 9.80437 2.63768 10.2935 2.28886C10.9605 1.81312 11.8777 2.34266 11.7993 3.15822C11.7417 3.75621 12.2438 4.25828 12.8418 4.20075C13.6573 4.12228 14.1869 5.03946 13.7111 5.70652C13.3623 6.19563 13.5461 6.88147 14.0927 7.13064C14.8383 7.47046 14.8383 8.52954 14.0927 8.86936C13.5461 9.11853 13.3623 9.80437 13.7111 10.2935C14.1869 10.9605 13.6573 11.8777 12.8418 11.7993C12.2438 11.7417 11.7417 12.2438 11.7993 12.8418C11.8777 13.6573 10.9605 14.1869 10.2935 13.7111C9.80437 13.3623 9.11853 13.5461 8.86936 14.0927C8.52954 14.8383 7.47046 14.8383 7.13064 14.0927C6.88147 13.5461 6.19563 13.3623 5.70652 13.7111C5.03946 14.1869 4.12228 13.6573 4.20075 12.8418C4.25828 12.2438 3.75621 11.7417 3.15822 11.7993C2.34266 11.8777 1.81312 10.9605 2.28886 10.2935C2.63768 9.80437 2.45391 9.11853 1.90727 8.86936C1.16174 8.52954 1.16174 7.47046 1.90727 7.13064C2.45391 6.88147 2.63768 6.19563 2.28886 5.70652C1.81312 5.03946 2.34266 4.12228 3.15822 4.20075C3.75621 4.25828 4.25828 3.75621 4.20075 3.15822C4.12228 2.34266 5.03946 1.81312 5.70652 2.28886C6.19563 2.63768 6.88147 2.45391 7.13064 1.90727Z" fill="#C89C34"/>
<path d="M5.81787 8.0866L7.36151 9.63024L10.4542 6.54297" fill="#C89C34"/>
<path d="M5.81787 8.0866L7.36151 9.63024L10.4542 6.54297" stroke="white" stroke-width="1.04545" stroke-linecap="round" stroke-linejoin="round"/>
</svg>
