<svg width="16" height="16" viewBox="0 0 16 16" fill="none" xmlns="http://www.w3.org/2000/svg">
<path d="M15.7606 9.93524C14.6921 14.221 10.3508 16.8292 6.06404 15.7605C1.77909 14.692 -0.829432 10.351 0.239615 6.06558C1.30772 1.77935 5.64899 -0.829071 9.93441 0.239387C14.2208 1.30785 16.8292 5.64936 15.7605 9.93532L15.7606 9.93524H15.7606Z" fill="#F3BA2F"/>
<path fill-rule="evenodd" clip-rule="evenodd" d="M8.0006 5.07668L5.92882 7.14823L5.92886 7.14815L4.72343 5.94282L8.0006 2.66602L11.2788 5.9438L10.0734 7.14913L8.0006 5.07668ZM3.87238 6.79383L2.66687 7.99937L3.8723 9.20449L5.07781 7.99912L3.87238 6.79383ZM5.92896 8.85075L8.00075 10.9222L10.0735 8.84977L11.2796 10.0545L11.279 10.0551L8.00075 13.3328L4.72358 10.056L4.72187 10.0543L5.92896 8.85075ZM12.1289 6.79445L10.9234 7.99983L12.1289 9.20512L13.3344 7.99974L12.1289 6.79445Z" fill="white"/>
<path d="M9.22334 7.99847H9.22385L8.00072 6.77539L7.09664 7.67911L6.99277 7.78301L6.77856 7.99724L6.77686 7.9989L6.77856 8.00065L8.00072 9.22284L9.22394 7.99975L9.22453 7.99907L9.22343 7.99847" fill="white"/>
</svg>
