<svg width="20" height="20" viewBox="0 0 20 20" fill="none" xmlns="http://www.w3.org/2000/svg">
<path opacity="0.4" d="M16.6604 15.7949H11.9152C11.4522 15.7949 11.0757 16.1774 11.0757 16.6477C11.0757 17.1189 11.4522 17.5005 11.9152 17.5005H16.6604C17.1234 17.5005 17.5 17.1189 17.5 16.6477C17.5 16.1774 17.1234 15.7949 16.6604 15.7949Z" fill="#464754"/>
<path d="M8.59085 5.75284L13.0874 9.38625C13.1959 9.47315 13.2144 9.6326 13.1297 9.74368L7.79895 16.6898C7.46385 17.1189 6.97001 17.3617 6.4409 17.3706L3.5308 17.4064C3.37559 17.4082 3.23979 17.3007 3.20452 17.1467L2.54313 14.2711C2.42849 13.7426 2.54313 13.1961 2.87823 12.7751L8.23547 5.79584C8.32189 5.68387 8.4815 5.66416 8.59085 5.75284Z" fill="#464754"/>
<path opacity="0.4" d="M15.1006 7.2212L14.2337 8.30334C14.1464 8.41352 13.9894 8.43144 13.881 8.34365C12.8272 7.49084 10.1287 5.30237 9.38001 4.69591C9.27066 4.60633 9.25567 4.44687 9.34386 4.33579L10.1799 3.29755C10.9382 2.32111 12.261 2.23153 13.3281 3.08255L14.5538 4.05899C15.0565 4.45314 15.3916 4.97271 15.5062 5.51916C15.6385 6.12025 15.4974 6.71059 15.1006 7.2212Z" fill="#464754"/>
</svg>
