<svg width="24" height="24" viewBox="0 0 24 24" fill="none" xmlns="http://www.w3.org/2000/svg">
<path opacity="0.4" d="M20.9612 15.957H14.3857C13.5535 15.957 12.8779 16.6207 12.8779 17.4384C12.8779 18.2549 13.5535 18.9197 14.3857 18.9197H20.9612C21.7934 18.9197 22.469 18.2549 22.469 17.4384C22.469 16.6207 21.7934 15.957 20.9612 15.957Z" fill="#A69F9F"/>
<path opacity="0.4" d="M22.4679 6.64039C22.4679 5.82386 21.7923 5.16016 20.9612 5.16016H14.3857C13.5535 5.16016 12.8779 5.82386 12.8779 6.64039C12.8779 7.45801 13.5535 8.12172 14.3857 8.12172H20.9612C21.7923 8.12172 22.4679 7.45801 22.4679 6.64039Z" fill="#A69F9F"/>
<path d="M8.87774 6.64028C8.87774 8.50695 7.33886 10.0199 5.43887 10.0199C3.53999 10.0199 2 8.50695 2 6.64028C2 4.7747 3.53999 3.26172 5.43887 3.26172C7.33886 3.26172 8.87774 4.7747 8.87774 6.64028Z" fill="#A69F9F"/>
<path d="M8.87774 17.3992C8.87774 19.2648 7.33886 20.7777 5.43887 20.7777C3.53999 20.7777 2 19.2648 2 17.3992C2 15.5325 3.53999 14.0195 5.43887 14.0195C7.33886 14.0195 8.87774 15.5325 8.87774 17.3992Z" fill="#A69F9F"/>
</svg>
