<svg width="16" height="13" viewBox="0 0 16 13" fill="none" xmlns="http://www.w3.org/2000/svg">
<path d="M16 1.45116C15.3951 1.70725 14.7599 1.84952 14.1248 1.93488C14.7902 1.56498 15.3346 0.938988 15.5766 0.227633C14.9414 0.569083 14.2457 0.825171 13.4896 0.967442C12.8847 0.369904 12.0378 0 11.1002 0C9.28544 0 7.83365 1.39425 7.83365 3.07305C7.83365 3.32914 7.86389 3.55677 7.92439 3.7844C5.14178 3.67059 2.72212 2.44706 1.11909 0.569083C0.816635 1.02435 0.665406 1.56498 0.665406 2.13406C0.665406 3.21532 1.24008 4.15431 2.1172 4.69494C1.60302 4.69494 1.0586 4.55267 0.635161 4.32503V4.35349C0.635161 5.86156 1.7845 7.08509 3.26654 7.39808C2.99433 7.45499 2.72212 7.48345 2.41966 7.48345C2.20794 7.48345 1.99622 7.48345 1.7845 7.42654C2.20794 8.65007 3.41777 9.5606 4.83932 9.58906C3.72023 10.4142 2.29868 10.8979 0.786389 10.8979C0.514178 10.8979 0.272212 10.8979 0 10.8695C1.4518 11.7231 3.1758 12.2353 5.02079 12.2353C11.0699 12.2353 14.3667 7.54035 14.3667 3.44295C14.3667 3.30068 14.3667 3.18687 14.3667 3.0446C15.0019 2.61778 15.5463 2.07715 16 1.45116Z" fill="#464754"/>
</svg>
